# Blender v2.79 (sub 1) OBJ File: 'untitled.blend'
# www.blender.org
mtllib Crate.mtl
o Cube.013_Cube.016
v 1.115248 -0.767630 -1.909469
v 1.115247 -0.767630 1.909469
v 0.838019 -0.767630 -1.909469
v 0.838019 -0.767630 1.909469
v 1.115248 -0.858974 -1.909469
v 1.115247 -0.858974 1.909469
v 0.838019 -0.858974 -1.909469
v 0.838019 -0.858974 1.909469
v -0.822356 -0.767630 -1.909469
v -0.822357 -0.767630 1.909469
v -1.099585 -0.767630 -1.909469
v -1.099585 -0.767630 1.909469
v -0.822356 -0.858974 -1.909469
v -0.822357 -0.858974 1.909469
v -1.099585 -0.858974 -1.909469
v -1.099585 -0.858974 1.909469
v 1.220061 -0.757278 -1.126996
v 1.220061 0.857380 -1.126996
v 1.220061 -0.757278 -1.404224
v 1.220062 0.857380 -1.404224
v 1.282843 -0.757278 -1.126996
v 1.282843 0.857380 -1.126996
v 1.282843 -0.757278 -1.404224
v 1.282843 0.857380 -1.404224
v 1.220061 -0.757278 1.146964
v 1.220061 0.857380 1.146964
v 1.220061 -0.757278 1.424192
v 1.220061 0.857380 1.424192
v 1.282843 -0.757278 1.146964
v 1.282843 0.857380 1.146964
v 1.282843 -0.757278 1.424192
v 1.282843 0.857380 1.424192
v -1.282843 -0.757278 1.146964
v -1.282843 0.857380 1.146964
v -1.282843 -0.757278 1.424192
v -1.282843 0.857380 1.424192
v -1.220062 -0.757278 1.146964
v -1.220061 0.857380 1.146964
v -1.220062 -0.757278 1.424192
v -1.220062 0.857380 1.424192
v -1.282843 -0.757278 -1.126996
v -1.282843 0.857380 -1.126996
v -1.282843 -0.757278 -1.404224
v -1.282843 0.857380 -1.404224
v -1.220062 -0.757278 -1.126996
v -1.220061 0.857380 -1.126996
v -1.220061 -0.757278 -1.404224
v -1.220061 0.857380 -1.404224
v -1.107184 0.341212 -2.013501
v -1.107184 0.341212 2.013500
v -1.107184 0.858974 2.013500
v -1.107184 0.858974 -2.013502
v -1.219618 0.341212 -2.013500
v -1.219618 0.341213 2.013502
v -1.219618 0.858974 2.013499
v -1.219618 0.858974 -2.013501
v -1.107184 -0.203798 -2.013501
v -1.107184 -0.203798 2.013500
v -1.107184 0.313964 2.013500
v -1.107184 0.313964 -2.013502
v -1.219618 -0.203798 -2.013500
v -1.219618 -0.203797 2.013502
v -1.219618 0.313964 2.013499
v -1.219618 0.313964 -2.013501
v -1.107184 -0.763903 -2.013501
v -1.107184 -0.763903 2.013500
v -1.107184 -0.246142 2.013500
v -1.107184 -0.246142 -2.013502
v -1.219618 -0.763903 -2.013500
v -1.219618 -0.763903 2.013502
v -1.219618 -0.246142 2.013499
v -1.219618 -0.246142 -2.013501
v 1.224219 -0.763903 -2.013501
v 1.224219 -0.763903 2.013500
v 1.224219 -0.246142 2.013500
v 1.224219 -0.246142 -2.013502
v 1.111785 -0.763903 -2.013500
v 1.111785 -0.763903 2.013502
v 1.111785 -0.246142 2.013499
v 1.111785 -0.246142 -2.013501
v 1.224219 -0.203797 -2.013501
v 1.224219 -0.203797 2.013500
v 1.224219 0.313964 2.013500
v 1.224219 0.313964 -2.013502
v 1.111785 -0.203798 -2.013500
v 1.111785 -0.203797 2.013502
v 1.111785 0.313964 2.013499
v 1.111785 0.313964 -2.013501
v 1.116224 0.788819 1.917137
v 1.116224 -0.589379 1.917136
v -1.113170 -0.589379 1.917137
v -1.113170 0.788820 1.917137
v 1.116225 0.788819 1.745034
v 1.116224 -0.589380 1.745034
v -1.113170 -0.589378 1.745034
v -1.113170 0.788820 1.745034
v 1.116224 0.788819 -1.753650
v 1.116224 -0.589379 -1.753650
v -1.113170 -0.589379 -1.753650
v -1.113169 0.788820 -1.753650
v 1.116225 0.788819 -1.925752
v 1.116224 -0.589380 -1.925753
v -1.113170 -0.589378 -1.925752
v -1.113170 0.788820 -1.925752
v 1.224219 0.341212 -2.013501
v 1.224219 0.341212 2.013500
v 1.224219 0.858974 2.013500
v 1.224219 0.858974 -2.013502
v 1.111785 0.341212 -2.013500
v 1.111785 0.341213 2.013502
v 1.111785 0.858974 2.013499
v 1.111785 0.858974 -2.013501
v 1.116224 -0.594919 -1.915751
v 1.116224 -0.594919 1.915751
v -1.113170 -0.594919 1.915750
v -1.113170 -0.594919 -1.915752
v 1.116225 -0.767021 -1.915750
v 1.116224 -0.767021 1.915752
v -1.113170 -0.767021 1.915750
v -1.113170 -0.767021 -1.915751
v 0.281672 0.921569 2.110005
v 0.281672 1.040715 2.110005
v 0.976322 0.921569 -1.893957
v 0.976322 1.040715 -1.893957
v 0.873732 0.921569 2.212722
v 0.873732 1.040715 2.212722
v 1.568382 0.921569 -1.791240
v 1.568382 1.040715 -1.791240
v -0.939658 0.921569 1.898116
v -0.939658 1.040715 1.898116
v -0.245008 0.921569 -2.105846
v -0.245008 1.040715 -2.105846
v -0.347598 0.921569 2.000832
v -0.347598 1.040715 2.000832
v 0.347052 0.921569 -2.003129
v 0.347052 1.040715 -2.003129
v -1.555689 0.921569 1.791240
v -1.555689 1.040715 1.791240
v -0.861039 0.921569 -2.212722
v -0.861039 1.040715 -2.212722
v -0.963629 0.921569 1.893957
v -0.963629 1.040715 1.893957
v -0.268979 0.921569 -2.110005
v -0.268979 1.040715 -2.110005
v -0.334359 0.921569 2.003129
v -0.334359 1.040715 2.003129
v 0.360291 0.921569 -2.000832
v 0.360291 1.040715 -2.000832
v 0.257701 0.921569 2.105846
v 0.257701 1.040715 2.105846
v 0.952351 0.921569 -1.898116
v 0.952351 1.040715 -1.898116
v -1.257235 0.859465 0.859396
v -1.257235 0.922114 0.859396
v -1.324268 0.859465 1.245772
v -1.324268 0.922114 1.245772
v 0.905877 0.859465 1.234676
v 0.905877 0.922114 1.234676
v 0.838844 0.859465 1.621052
v 0.838844 0.922114 1.621052
v -0.893911 0.859465 -1.234802
v -0.893911 0.922114 -1.234802
v -0.826879 0.859465 -1.621178
v -0.826879 0.922114 -1.621178
v 1.269200 0.859465 -0.859522
v 1.269200 0.922114 -0.859522
v 1.336233 0.859465 -1.245899
v 1.336233 0.922114 -1.245899
vt 0.920477 0.973147
vt 0.913737 0.973147
vt 0.913737 0.687745
vt 0.920477 0.687745
vt 0.820333 0.051617
vt 0.840791 0.051617
vt 0.840791 0.337438
vt 0.820333 0.337438
vt 0.898978 0.973147
vt 0.892237 0.973147
vt 0.892237 0.687745
vt 0.898978 0.687745
vt 0.588155 0.007484
vt 0.588155 0.028208
vt 0.581414 0.028208
vt 0.581414 0.007484
vt 0.602913 0.028208
vt 0.602913 0.007484
vt 0.609654 0.007484
vt 0.609654 0.028208
vt 0.870738 0.687745
vt 0.877478 0.687745
vt 0.877479 0.973147
vt 0.870738 0.973147
vt 0.808063 0.370731
vt 0.828520 0.370731
vt 0.828520 0.656553
vt 0.808063 0.656553
vt 0.941976 0.973147
vt 0.935236 0.973147
vt 0.935236 0.687745
vt 0.941976 0.687745
vt 0.631153 0.007484
vt 0.631153 0.028208
vt 0.624413 0.028208
vt 0.624413 0.007484
vt 0.559915 0.028208
vt 0.559915 0.007484
vt 0.566655 0.007484
vt 0.566655 0.028208
vt 0.007379 0.927605
vt 0.007379 0.806759
vt 0.027807 0.806759
vt 0.027807 0.927605
vt 0.499775 0.871469
vt 0.499775 0.992315
vt 0.495148 0.992315
vt 0.495148 0.871469
vt 0.340266 0.806759
vt 0.340266 0.927605
vt 0.319838 0.927605
vt 0.319838 0.806759
vt 0.519161 0.871469
vt 0.519161 0.992315
vt 0.514534 0.992315
vt 0.514534 0.871469
vt 0.645912 0.007484
vt 0.650545 0.007484
vt 0.650545 0.028233
vt 0.645912 0.028233
vt 0.747503 0.028233
vt 0.742870 0.028233
vt 0.742870 0.007484
vt 0.747503 0.007484
vt 0.249466 0.806759
vt 0.269893 0.806759
vt 0.269893 0.927605
vt 0.249466 0.927605
vt 0.591556 0.986779
vt 0.586928 0.986779
vt 0.586928 0.865933
vt 0.591556 0.865933
vt 0.123840 0.807611
vt 0.144268 0.807611
vt 0.144268 0.928457
vt 0.123840 0.928457
vt 0.370554 0.992516
vt 0.365927 0.992516
vt 0.365927 0.871669
vt 0.370554 0.871669
vt 0.665303 0.028233
vt 0.665303 0.007484
vt 0.669936 0.007484
vt 0.669936 0.028233
vt 0.708719 0.007484
vt 0.708719 0.028233
vt 0.704087 0.028233
vt 0.704087 0.007484
vt 0.159027 0.807611
vt 0.179454 0.807611
vt 0.179454 0.928457
vt 0.159027 0.928457
vt 0.480389 0.992315
vt 0.475762 0.992315
vt 0.475762 0.871469
vt 0.480389 0.871469
vt 0.284652 0.806759
vt 0.305080 0.806759
vt 0.305080 0.927605
vt 0.284652 0.927605
vt 0.610942 0.986779
vt 0.606314 0.986779
vt 0.606314 0.865933
vt 0.610942 0.865933
vt 0.684695 0.028233
vt 0.684695 0.007484
vt 0.689328 0.007484
vt 0.689328 0.028233
vt 0.728111 0.007484
vt 0.728111 0.028233
vt 0.723478 0.028233
vt 0.723478 0.007484
vt 0.042566 0.927605
vt 0.042566 0.806759
vt 0.062993 0.806759
vt 0.062993 0.927605
vt 0.543232 0.986779
vt 0.543231 0.865933
vt 0.547859 0.865933
vt 0.547859 0.986779
vt 0.077752 0.927605
vt 0.077752 0.806759
vt 0.098180 0.806759
vt 0.098180 0.927605
vt 0.562618 0.986779
vt 0.562618 0.865933
vt 0.567245 0.865933
vt 0.567245 0.986779
vt 0.762261 0.007484
vt 0.766894 0.007484
vt 0.766894 0.028233
vt 0.762261 0.028233
vt 0.786286 0.028233
vt 0.781653 0.028233
vt 0.781653 0.007484
vt 0.786286 0.007484
vt 0.007379 0.490838
vt 0.045587 0.490838
vt 0.045587 0.791790
vt 0.007379 0.791790
vt 0.740338 0.370731
vt 0.740338 0.671683
vt 0.702130 0.671683
vt 0.702130 0.370731
vt 0.676736 0.988045
vt 0.676736 0.686652
vt 0.685033 0.686652
vt 0.685033 0.988045
vt 0.156409 0.943426
vt 0.156409 0.982177
vt 0.148122 0.982177
vt 0.148122 0.943426
vt 0.638922 0.686652
vt 0.638922 0.988045
vt 0.630625 0.988045
vt 0.630625 0.686652
vt 0.328125 0.942574
vt 0.328125 0.981324
vt 0.319838 0.981324
vt 0.319839 0.942574
vt 0.755097 0.370731
vt 0.793304 0.370731
vt 0.793304 0.671683
vt 0.755097 0.671683
vt 0.634405 0.370731
vt 0.634405 0.671683
vt 0.596198 0.671683
vt 0.596198 0.370731
vt 0.722847 0.988045
vt 0.722847 0.686652
vt 0.731144 0.686652
vt 0.731144 0.988045
vt 0.054481 0.981324
vt 0.054481 0.942573
vt 0.062768 0.942573
vt 0.062768 0.981324
vt 0.973239 0.370731
vt 0.973239 0.672125
vt 0.964942 0.672125
vt 0.964942 0.370731
vt 0.303844 0.942574
vt 0.303844 0.981324
vt 0.295557 0.981324
vt 0.295557 0.942574
vt 0.249466 0.490838
vt 0.287673 0.490838
vt 0.287673 0.791790
vt 0.249466 0.791790
vt 0.714401 0.352568
vt 0.714401 0.051617
vt 0.752608 0.051617
vt 0.752608 0.352568
vt 0.964942 0.988488
vt 0.964942 0.687094
vt 0.973239 0.687094
vt 0.973239 0.988487
vt 0.272511 0.981324
vt 0.272511 0.942574
vt 0.280798 0.942574
vt 0.280798 0.981324
vt 0.661977 0.686652
vt 0.661977 0.988045
vt 0.653681 0.988045
vt 0.653681 0.686652
vt 0.132127 0.943426
vt 0.132127 0.982177
vt 0.123840 0.982177
vt 0.123840 0.943426
vt 0.060346 0.490838
vt 0.098553 0.490838
vt 0.098553 0.791790
vt 0.060346 0.791790
vt 0.581439 0.370731
vt 0.581439 0.671683
vt 0.543232 0.671683
vt 0.543231 0.370731
vt 0.745903 0.988045
vt 0.745903 0.686652
vt 0.754200 0.686652
vt 0.754200 0.988045
vt 0.086039 0.942573
vt 0.086039 0.981324
vt 0.077752 0.981324
vt 0.077752 0.942574
vt 0.961958 0.051617
vt 0.961958 0.353010
vt 0.953662 0.353010
vt 0.953662 0.051617
vt 0.985004 0.229661
vt 0.985004 0.268412
vt 0.976717 0.268412
vt 0.976717 0.229661
vt 0.767367 0.051617
vt 0.805575 0.051617
vt 0.805575 0.352568
vt 0.767367 0.352568
vt 0.687371 0.370731
vt 0.687372 0.671683
vt 0.649164 0.671683
vt 0.649164 0.370731
vt 0.768959 0.988045
vt 0.768959 0.686652
vt 0.777256 0.686652
vt 0.777256 0.988045
vt 0.257753 0.942574
vt 0.257753 0.981324
vt 0.249466 0.981324
vt 0.249466 0.942574
vt 0.851576 0.672041
vt 0.851576 0.973435
vt 0.843279 0.973435
vt 0.843279 0.672041
vt 0.985004 0.283381
vt 0.985004 0.322132
vt 0.976717 0.322132
vt 0.976717 0.283381
vt 0.365927 0.355763
vt 0.365927 0.189108
vt 0.467629 0.189108
vt 0.467629 0.355763
vt 0.365927 0.007484
vt 0.467629 0.007484
vt 0.467629 0.174139
vt 0.365927 0.174139
vt 0.378627 0.689846
vt 0.378627 0.856701
vt 0.365927 0.856701
vt 0.365927 0.689846
vt 0.406085 0.689846
vt 0.406085 0.856701
vt 0.393385 0.856701
vt 0.393385 0.689846
vt 0.351168 0.309215
vt 0.351168 0.475870
vt 0.249466 0.475870
vt 0.249466 0.309215
vt 0.007379 0.309215
vt 0.109082 0.309215
vt 0.109081 0.475870
vt 0.007379 0.475870
vt 0.420844 0.856701
vt 0.420844 0.689846
vt 0.433544 0.689846
vt 0.433544 0.856701
vt 0.448303 0.856701
vt 0.448303 0.689846
vt 0.461003 0.689846
vt 0.461003 0.856701
vt 0.302432 0.490838
vt 0.340639 0.490838
vt 0.340639 0.791790
vt 0.302432 0.791790
vt 0.699642 0.051617
vt 0.699642 0.352568
vt 0.661435 0.352568
vt 0.661435 0.051617
vt 0.699792 0.988045
vt 0.699792 0.686652
vt 0.708089 0.686652
vt 0.708089 0.988045
vt 0.219521 0.945343
vt 0.219521 0.984094
vt 0.211234 0.984094
vt 0.211234 0.945343
vt 0.808063 0.972915
vt 0.808063 0.671522
vt 0.816360 0.671522
vt 0.816360 0.972915
vt 0.171167 0.982177
vt 0.171167 0.943426
vt 0.179454 0.943426
vt 0.179454 0.982177
vt 0.186653 0.007484
vt 0.351168 0.007484
vt 0.351168 0.294246
vt 0.186653 0.294246
vt 0.171894 0.007484
vt 0.171894 0.294246
vt 0.007379 0.294246
vt 0.007379 0.007484
vt 0.855979 0.370731
vt 0.855979 0.657072
vt 0.843279 0.657072
vt 0.843279 0.370731
vt 0.503220 0.856501
vt 0.503220 0.689846
vt 0.515921 0.689846
vt 0.515921 0.856500
vt 0.868250 0.051617
vt 0.868250 0.337958
vt 0.855550 0.337958
vt 0.855550 0.051617
vt 0.488462 0.689846
vt 0.488462 0.856501
vt 0.475762 0.856501
vt 0.475762 0.689846
vt 0.926632 0.672776
vt 0.917840 0.672776
vt 0.917840 0.370731
vt 0.926632 0.370731
vt 0.432415 0.871669
vt 0.441207 0.871669
vt 0.441207 0.916305
vt 0.432415 0.916305
vt 0.211234 0.628330
vt 0.220026 0.628330
vt 0.220026 0.930375
vt 0.211234 0.930375
vt 0.441207 0.975908
vt 0.432415 0.975908
vt 0.432415 0.931273
vt 0.441207 0.931273
vt 0.123840 0.309215
vt 0.168183 0.309215
vt 0.168183 0.613361
vt 0.123840 0.613361
vt 0.587574 0.355763
vt 0.543231 0.355763
vt 0.543232 0.051617
vt 0.587574 0.051617
vt 0.891801 0.353662
vt 0.883009 0.353662
vt 0.883008 0.051617
vt 0.891801 0.051617
vt 0.394105 0.975908
vt 0.385313 0.975908
vt 0.385313 0.931273
vt 0.394105 0.931273
vt 0.938903 0.353662
vt 0.930110 0.353662
vt 0.930111 0.051617
vt 0.938903 0.051617
vt 0.417656 0.975908
vt 0.408864 0.975908
vt 0.408864 0.931273
vt 0.417656 0.931273
vt 0.425028 0.370731
vt 0.469371 0.370731
vt 0.469371 0.674877
vt 0.425028 0.674877
vt 0.602333 0.051617
vt 0.646676 0.051617
vt 0.646676 0.355763
vt 0.602333 0.355763
vt 0.879530 0.672776
vt 0.870738 0.672776
vt 0.870738 0.370731
vt 0.879530 0.370731
vt 0.394105 0.916305
vt 0.385313 0.916305
vt 0.385313 0.871669
vt 0.394105 0.871669
vt 0.950183 0.672776
vt 0.941391 0.672776
vt 0.941391 0.370731
vt 0.950183 0.370731
vt 0.030930 0.942573
vt 0.039723 0.942573
vt 0.039723 0.987209
vt 0.030930 0.987209
vt 0.190364 0.309215
vt 0.234707 0.309215
vt 0.234707 0.613361
vt 0.190364 0.613361
vt 0.528473 0.674877
vt 0.484130 0.674877
vt 0.484130 0.370731
vt 0.528473 0.370731
vt 0.915352 0.353662
vt 0.906560 0.353662
vt 0.906559 0.051617
vt 0.915352 0.051617
vt 0.016172 0.987209
vt 0.007379 0.987209
vt 0.007379 0.942573
vt 0.016172 0.942573
vt 0.894289 0.370731
vt 0.903081 0.370731
vt 0.903081 0.672776
vt 0.894289 0.672776
vt 0.408864 0.871669
vt 0.417656 0.871669
vt 0.417656 0.916305
vt 0.408864 0.916305
vt 0.365927 0.370731
vt 0.410269 0.370731
vt 0.410270 0.674877
vt 0.365927 0.674877
vt 0.484130 0.051617
vt 0.528473 0.051617
vt 0.528473 0.355763
vt 0.484130 0.355763
vt 0.506392 0.007484
vt 0.506392 0.036631
vt 0.501769 0.036631
vt 0.501769 0.007484
vt 0.981340 0.051617
vt 0.981340 0.214692
vt 0.976717 0.214692
vt 0.976717 0.051617
vt 0.525774 0.007484
vt 0.525774 0.036631
vt 0.521151 0.036631
vt 0.521151 0.007484
vt 0.992621 0.548776
vt 0.992621 0.711851
vt 0.987998 0.711851
vt 0.987998 0.548776
vt 0.586928 0.686652
vt 0.615866 0.686652
vt 0.615866 0.850964
vt 0.586928 0.850964
vt 0.543232 0.686652
vt 0.572170 0.686652
vt 0.572169 0.850964
vt 0.543231 0.850964
vt 0.482388 0.007484
vt 0.487011 0.007484
vt 0.487011 0.036631
vt 0.482388 0.036631
vt 0.992621 0.889896
vt 0.987998 0.889896
vt 0.987998 0.726820
vt 0.992621 0.726820
vt 0.545156 0.036631
vt 0.540533 0.036631
vt 0.540533 0.007484
vt 0.545156 0.007484
vt 0.992621 0.533807
vt 0.987998 0.533807
vt 0.987998 0.370731
vt 0.992621 0.370731
vt 0.167537 0.792642
vt 0.167537 0.628330
vt 0.196475 0.628330
vt 0.196475 0.792642
vt 0.152778 0.628330
vt 0.152778 0.792642
vt 0.123840 0.792642
vt 0.123840 0.628330
vn -1.0000 0.0000 -0.0000
vn 0.0000 -1.0000 0.0000
vn 1.0000 0.0000 0.0000
vn 0.0000 0.0000 -1.0000
vn 0.0000 0.0000 1.0000
vn 0.0000 1.0000 -0.0000
vn -0.9853 0.0000 -0.1709
vn 0.1709 0.0000 -0.9853
vn 0.9853 0.0000 0.1709
vn -0.1709 0.0000 0.9853
usemtl None
s off
f 3/1/1 7/2/1 8/3/1 4/4/1
f 7/5/2 5/6/2 6/7/2 8/8/2
f 5/9/3 1/10/3 2/11/3 6/12/3
f 3/13/4 1/14/4 5/15/4 7/16/4
f 8/17/5 6/18/5 2/19/5 4/20/5
f 11/21/1 15/22/1 16/23/1 12/24/1
f 15/25/2 13/26/2 14/27/2 16/28/2
f 13/29/3 9/30/3 10/31/3 14/32/3
f 11/33/4 9/34/4 13/35/4 15/36/4
f 16/37/5 14/38/5 10/39/5 12/40/5
f 17/41/1 18/42/1 20/43/1 19/44/1
f 19/45/4 20/46/4 24/47/4 23/48/4
f 23/49/3 24/50/3 22/51/3 21/52/3
f 21/53/5 22/54/5 18/55/5 17/56/5
f 19/57/2 23/58/2 21/59/2 17/60/2
f 24/61/6 20/62/6 18/63/6 22/64/6
f 25/65/1 27/66/1 28/67/1 26/68/1
f 27/69/5 31/70/5 32/71/5 28/72/5
f 31/73/3 29/74/3 30/75/3 32/76/3
f 29/77/4 25/78/4 26/79/4 30/80/4
f 27/81/2 25/82/2 29/83/2 31/84/2
f 32/85/6 30/86/6 26/87/6 28/88/6
f 33/89/1 35/90/1 36/91/1 34/92/1
f 35/93/5 39/94/5 40/95/5 36/96/5
f 39/97/3 37/98/3 38/99/3 40/100/3
f 37/101/4 33/102/4 34/103/4 38/104/4
f 35/105/2 33/106/2 37/107/2 39/108/2
f 40/109/6 38/110/6 34/111/6 36/112/6
f 41/113/1 42/114/1 44/115/1 43/116/1
f 43/117/4 44/118/4 48/119/4 47/120/4
f 47/121/3 48/122/3 46/123/3 45/124/3
f 45/125/5 46/126/5 42/127/5 41/128/5
f 43/129/2 47/130/2 45/131/2 41/132/2
f 48/133/6 44/134/6 42/135/6 46/136/6
f 49/137/3 52/138/3 51/139/3 50/140/3
f 53/141/1 54/142/1 55/143/1 56/144/1
f 49/145/2 50/146/2 54/147/2 53/148/2
f 50/149/5 51/150/5 55/151/5 54/152/5
f 51/153/6 52/154/6 56/155/6 55/156/6
f 53/157/4 56/158/4 52/159/4 49/160/4
f 57/161/3 60/162/3 59/163/3 58/164/3
f 61/165/1 62/166/1 63/167/1 64/168/1
f 57/169/2 58/170/2 62/171/2 61/172/2
f 58/173/5 59/174/5 63/175/5 62/176/5
f 59/177/6 60/178/6 64/179/6 63/180/6
f 61/181/4 64/182/4 60/183/4 57/184/4
f 65/185/3 68/186/3 67/187/3 66/188/3
f 69/189/1 70/190/1 71/191/1 72/192/1
f 65/193/2 66/194/2 70/195/2 69/196/2
f 66/197/5 67/198/5 71/199/5 70/200/5
f 67/201/6 68/202/6 72/203/6 71/204/6
f 69/205/4 72/206/4 68/207/4 65/208/4
f 73/209/3 76/210/3 75/211/3 74/212/3
f 77/213/1 78/214/1 79/215/1 80/216/1
f 73/217/2 74/218/2 78/219/2 77/220/2
f 74/221/5 75/222/5 79/223/5 78/224/5
f 75/225/6 76/226/6 80/227/6 79/228/6
f 77/229/4 80/230/4 76/231/4 73/232/4
f 81/233/3 84/234/3 83/235/3 82/236/3
f 85/237/1 86/238/1 87/239/1 88/240/1
f 81/241/2 82/242/2 86/243/2 85/244/2
f 82/245/5 83/246/5 87/247/5 86/248/5
f 83/249/6 84/250/6 88/251/6 87/252/6
f 85/253/4 88/254/4 84/255/4 81/256/4
f 89/257/5 92/258/5 91/259/5 90/260/5
f 93/261/4 94/262/4 95/263/4 96/264/4
f 90/265/2 91/266/2 95/267/2 94/268/2
f 93/269/6 96/270/6 92/271/6 89/272/6
f 97/273/5 100/274/5 99/275/5 98/276/5
f 101/277/4 102/278/4 103/279/4 104/280/4
f 98/281/2 99/282/2 103/283/2 102/284/2
f 101/285/6 104/286/6 100/287/6 97/288/6
f 105/289/3 108/290/3 107/291/3 106/292/3
f 109/293/1 110/294/1 111/295/1 112/296/1
f 105/297/2 106/298/2 110/299/2 109/300/2
f 106/301/5 107/302/5 111/303/5 110/304/5
f 107/305/6 108/306/6 112/307/6 111/308/6
f 109/309/4 112/310/4 108/311/4 105/312/4
f 113/313/6 116/314/6 115/315/6 114/316/6
f 117/317/2 118/318/2 119/319/2 120/320/2
f 113/321/3 114/322/3 118/323/3 117/324/3
f 114/325/5 115/326/5 119/327/5 118/328/5
f 115/329/1 116/330/1 120/331/1 119/332/1
f 117/333/4 120/334/4 116/335/4 113/336/4
f 121/337/7 122/338/7 124/339/7 123/340/7
f 123/341/8 124/342/8 128/343/8 127/344/8
f 127/345/9 128/346/9 126/347/9 125/348/9
f 125/349/10 126/350/10 122/351/10 121/352/10
f 123/353/2 127/354/2 125/355/2 121/356/2
f 128/357/6 124/358/6 122/359/6 126/360/6
f 129/361/7 130/362/7 132/363/7 131/364/7
f 131/365/8 132/366/8 136/367/8 135/368/8
f 135/369/9 136/370/9 134/371/9 133/372/9
f 133/373/10 134/374/10 130/375/10 129/376/10
f 131/377/2 135/378/2 133/379/2 129/380/2
f 136/381/6 132/382/6 130/383/6 134/384/6
f 137/385/7 138/386/7 140/387/7 139/388/7
f 139/389/8 140/390/8 144/391/8 143/392/8
f 143/393/9 144/394/9 142/395/9 141/396/9
f 141/397/10 142/398/10 138/399/10 137/400/10
f 139/401/2 143/402/2 141/403/2 137/404/2
f 144/405/6 140/406/6 138/407/6 142/408/6
f 145/409/7 146/410/7 148/411/7 147/412/7
f 147/413/8 148/414/8 152/415/8 151/416/8
f 151/417/9 152/418/9 150/419/9 149/420/9
f 149/421/10 150/422/10 146/423/10 145/424/10
f 147/425/2 151/426/2 149/427/2 145/428/2
f 152/429/6 148/430/6 146/431/6 150/432/6
f 153/433/7 155/434/7 156/435/7 154/436/7
f 155/437/10 159/438/10 160/439/10 156/440/10
f 159/441/9 157/442/9 158/443/9 160/444/9
f 157/445/8 153/446/8 154/447/8 158/448/8
f 155/449/2 153/450/2 157/451/2 159/452/2
f 160/453/6 158/454/6 154/455/6 156/456/6
f 161/457/7 162/458/7 164/459/7 163/460/7
f 163/461/8 164/462/8 168/463/8 167/464/8
f 167/465/9 168/466/9 166/467/9 165/468/9
f 165/469/10 166/470/10 162/471/10 161/472/10
f 163/473/2 167/474/2 165/475/2 161/476/2
f 168/477/6 164/478/6 162/479/6 166/480/6
